<?xml version="1.0" encoding="utf-8" standalone="no"?>
<!DOCTYPE svg PUBLIC "-//W3C//DTD SVG 1.1//EN"
  "http://www.w3.org/Graphics/SVG/1.1/DTD/svg11.dtd">
<svg xmlns:xlink="http://www.w3.org/1999/xlink" width="460.8pt" height="345.6pt" viewBox="0 0 460.8 345.6" xmlns="http://www.w3.org/2000/svg" version="1.1">
 <metadata>
  <rdf:RDF xmlns:dc="http://purl.org/dc/elements/1.1/" xmlns:cc="http://creativecommons.org/ns#" xmlns:rdf="http://www.w3.org/1999/02/22-rdf-syntax-ns#">
   <cc:Work>
    <dc:type rdf:resource="http://purl.org/dc/dcmitype/StillImage"/>
    <dc:date>2024-07-01T12:07:12.913579</dc:date>
    <dc:format>image/svg+xml</dc:format>
    <dc:creator>
     <cc:Agent>
      <dc:title>Matplotlib v3.9.0, https://matplotlib.org/</dc:title>
     </cc:Agent>
    </dc:creator>
   </cc:Work>
  </rdf:RDF>
 </metadata>
 <defs>
  <style type="text/css">*{stroke-linejoin: round; stroke-linecap: butt}</style>
 </defs>
 <g id="figure_1">
  <g id="patch_1">
   <path d="M 0 345.6 
L 460.8 345.6 
L 460.8 0 
L 0 0 
z
" style="fill: #ffffff"/>
  </g>
  <g id="axes_1">
   <g id="patch_2">
    <path d="M 57.6 307.584 
L 414.72 307.584 
L 414.72 41.472 
L 57.6 41.472 
z
" style="fill: #ffffff"/>
   </g>
   <g id="matplotlib.axis_1">
    <g id="xtick_1">
     <g id="line2d_1">
      <path d="M 57.6 307.584 
L 57.6 41.472 
" clip-path="url(#pa13a5897e1)" style="fill: none; stroke-dasharray: 2.96,1.28; stroke-dashoffset: 0; stroke: #808080; stroke-width: 0.8"/>
     </g>
     <g id="line2d_2">
      <defs>
       <path id="m3ae0f2b636" d="M 0 0 
L 0 3.5 
" style="stroke: #000000; stroke-width: 0.8"/>
      </defs>
      <g>
       <use xlink:href="#m3ae0f2b636" x="57.6" y="307.584" style="stroke: #000000; stroke-width: 0.8"/>
      </g>
     </g>
     <g id="text_1">
      <!-- $\mathdefault{1}$ -->
      <g transform="translate(55.109332 321.502498) scale(0.1 -0.1)">
       <defs>
        <path id="CMR17-31" d="M 1702 4058 
C 1702 4192 1696 4192 1606 4192 
C 1357 3916 979 3827 621 3827 
C 602 3827 570 3827 563 3808 
C 557 3795 557 3782 557 3648 
C 755 3648 1088 3686 1344 3839 
L 1344 461 
C 1344 236 1331 160 781 160 
L 589 160 
L 589 0 
C 896 0 1216 0 1523 0 
C 1830 0 2150 0 2458 0 
L 2458 160 
L 2266 160 
C 1715 160 1702 230 1702 458 
L 1702 4058 
z
" transform="scale(0.015625)"/>
       </defs>
       <use xlink:href="#CMR17-31" transform="scale(0.996264)"/>
      </g>
     </g>
    </g>
    <g id="xtick_2">
     <g id="line2d_3">
      <path d="M 128.524765 307.584 
L 128.524765 41.472 
" clip-path="url(#pa13a5897e1)" style="fill: none; stroke-dasharray: 2.96,1.28; stroke-dashoffset: 0; stroke: #808080; stroke-width: 0.8"/>
     </g>
     <g id="line2d_4">
      <g>
       <use xlink:href="#m3ae0f2b636" x="128.524765" y="307.584" style="stroke: #000000; stroke-width: 0.8"/>
      </g>
     </g>
     <g id="text_2">
      <!-- $\mathdefault{4}$ -->
      <g transform="translate(126.034098 321.502498) scale(0.1 -0.1)">
       <defs>
        <path id="CMR17-34" d="M 2150 4122 
C 2150 4256 2144 4256 2029 4256 
L 128 1254 
L 128 1088 
L 1779 1088 
L 1779 457 
C 1779 224 1766 160 1318 160 
L 1197 160 
L 1197 0 
C 1402 0 1747 0 1965 0 
C 2182 0 2528 0 2733 0 
L 2733 160 
L 2611 160 
C 2163 160 2150 224 2150 457 
L 2150 1088 
L 2803 1088 
L 2803 1254 
L 2150 1254 
L 2150 4122 
z
M 1798 3703 
L 1798 1254 
L 256 1254 
L 1798 3703 
z
" transform="scale(0.015625)"/>
       </defs>
       <use xlink:href="#CMR17-34" transform="scale(0.996264)"/>
      </g>
     </g>
    </g>
    <g id="xtick_3">
     <g id="line2d_5">
      <path d="M 199.449531 307.584 
L 199.449531 41.472 
" clip-path="url(#pa13a5897e1)" style="fill: none; stroke-dasharray: 2.96,1.28; stroke-dashoffset: 0; stroke: #808080; stroke-width: 0.8"/>
     </g>
     <g id="line2d_6">
      <g>
       <use xlink:href="#m3ae0f2b636" x="199.449531" y="307.584" style="stroke: #000000; stroke-width: 0.8"/>
      </g>
     </g>
     <g id="text_3">
      <!-- $\mathdefault{16}$ -->
      <g transform="translate(194.468195 321.502498) scale(0.1 -0.1)">
       <defs>
        <path id="CMR17-36" d="M 678 2176 
C 678 3690 1395 4032 1811 4032 
C 1946 4032 2272 4009 2400 3776 
C 2298 3776 2106 3776 2106 3553 
C 2106 3381 2246 3323 2336 3323 
C 2394 3323 2566 3348 2566 3560 
C 2566 3954 2246 4179 1805 4179 
C 1043 4179 243 3390 243 1984 
C 243 253 966 -128 1478 -128 
C 2099 -128 2688 427 2688 1283 
C 2688 2081 2170 2662 1517 2662 
C 1126 2662 838 2407 678 1960 
L 678 2176 
z
M 1478 25 
C 691 25 691 1200 691 1436 
C 691 1896 909 2560 1504 2560 
C 1613 2560 1926 2560 2138 2120 
C 2253 1870 2253 1609 2253 1289 
C 2253 944 2253 690 2118 434 
C 1978 171 1773 25 1478 25 
z
" transform="scale(0.015625)"/>
       </defs>
       <use xlink:href="#CMR17-31" transform="scale(0.996264)"/>
       <use xlink:href="#CMR17-36" transform="translate(45.690477 0) scale(0.996264)"/>
      </g>
     </g>
    </g>
    <g id="xtick_4">
     <g id="line2d_7">
      <path d="M 270.374296 307.584 
L 270.374296 41.472 
" clip-path="url(#pa13a5897e1)" style="fill: none; stroke-dasharray: 2.96,1.28; stroke-dashoffset: 0; stroke: #808080; stroke-width: 0.8"/>
     </g>
     <g id="line2d_8">
      <g>
       <use xlink:href="#m3ae0f2b636" x="270.374296" y="307.584" style="stroke: #000000; stroke-width: 0.8"/>
      </g>
     </g>
     <g id="text_4">
      <!-- $\mathdefault{64}$ -->
      <g transform="translate(265.392961 321.502498) scale(0.1 -0.1)">
       <use xlink:href="#CMR17-36" transform="scale(0.996264)"/>
       <use xlink:href="#CMR17-34" transform="translate(45.690477 0) scale(0.996264)"/>
      </g>
     </g>
    </g>
    <g id="xtick_5">
     <g id="line2d_9">
      <path d="M 341.299061 307.584 
L 341.299061 41.472 
" clip-path="url(#pa13a5897e1)" style="fill: none; stroke-dasharray: 2.96,1.28; stroke-dashoffset: 0; stroke: #808080; stroke-width: 0.8"/>
     </g>
     <g id="line2d_10">
      <g>
       <use xlink:href="#m3ae0f2b636" x="341.299061" y="307.584" style="stroke: #000000; stroke-width: 0.8"/>
      </g>
     </g>
     <g id="text_5">
      <!-- $\mathdefault{256}$ -->
      <g transform="translate(333.827058 321.502498) scale(0.1 -0.1)">
       <defs>
        <path id="CMR17-32" d="M 2669 989 
L 2554 989 
C 2490 536 2438 459 2413 420 
C 2381 369 1920 369 1830 369 
L 602 369 
C 832 619 1280 1072 1824 1597 
C 2214 1967 2669 2402 2669 3035 
C 2669 3790 2067 4224 1395 4224 
C 691 4224 262 3604 262 3030 
C 262 2780 448 2748 525 2748 
C 589 2748 781 2787 781 3010 
C 781 3207 614 3264 525 3264 
C 486 3264 448 3258 422 3245 
C 544 3790 915 4058 1306 4058 
C 1862 4058 2227 3617 2227 3035 
C 2227 2479 1901 2000 1536 1584 
L 262 146 
L 262 0 
L 2515 0 
L 2669 989 
z
" transform="scale(0.015625)"/>
        <path id="CMR17-35" d="M 730 3692 
C 794 3666 1056 3584 1325 3584 
C 1920 3584 2246 3911 2432 4100 
C 2432 4157 2432 4192 2394 4192 
C 2387 4192 2374 4192 2323 4163 
C 2099 4058 1837 3973 1517 3973 
C 1325 3973 1037 3999 723 4139 
C 653 4171 640 4171 634 4171 
C 602 4171 595 4164 595 4037 
L 595 2203 
C 595 2089 595 2057 659 2057 
C 691 2057 704 2070 736 2114 
C 941 2401 1222 2522 1542 2522 
C 1766 2522 2246 2382 2246 1289 
C 2246 1085 2246 715 2054 421 
C 1894 159 1645 25 1370 25 
C 947 25 518 320 403 814 
C 429 807 480 795 506 795 
C 589 795 749 840 749 1038 
C 749 1210 627 1280 506 1280 
C 358 1280 262 1190 262 1011 
C 262 454 704 -128 1382 -128 
C 2042 -128 2669 440 2669 1264 
C 2669 2030 2170 2624 1549 2624 
C 1222 2624 947 2503 730 2274 
L 730 3692 
z
" transform="scale(0.015625)"/>
       </defs>
       <use xlink:href="#CMR17-32" transform="scale(0.996264)"/>
       <use xlink:href="#CMR17-35" transform="translate(45.690477 0) scale(0.996264)"/>
       <use xlink:href="#CMR17-36" transform="translate(91.380954 0) scale(0.996264)"/>
      </g>
     </g>
    </g>
    <g id="xtick_6">
     <g id="line2d_11">
      <path d="M 412.223827 307.584 
L 412.223827 41.472 
" clip-path="url(#pa13a5897e1)" style="fill: none; stroke-dasharray: 2.96,1.28; stroke-dashoffset: 0; stroke: #808080; stroke-width: 0.8"/>
     </g>
     <g id="line2d_12">
      <g>
       <use xlink:href="#m3ae0f2b636" x="412.223827" y="307.584" style="stroke: #000000; stroke-width: 0.8"/>
      </g>
     </g>
     <g id="text_6">
      <!-- $\mathdefault{1024}$ -->
      <g transform="translate(402.261156 321.502498) scale(0.1 -0.1)">
       <defs>
        <path id="CMR17-30" d="M 2688 2025 
C 2688 2416 2682 3080 2413 3591 
C 2176 4039 1798 4198 1466 4198 
C 1158 4198 768 4058 525 3597 
C 269 3118 243 2524 243 2025 
C 243 1661 250 1106 448 619 
C 723 -39 1216 -128 1466 -128 
C 1760 -128 2208 -7 2470 600 
C 2662 1042 2688 1559 2688 2025 
z
M 1466 -26 
C 1056 -26 813 325 723 812 
C 653 1188 653 1738 653 2096 
C 653 2588 653 2997 736 3387 
C 858 3929 1216 4096 1466 4096 
C 1728 4096 2067 3923 2189 3400 
C 2272 3036 2278 2607 2278 2096 
C 2278 1680 2278 1169 2202 792 
C 2067 95 1690 -26 1466 -26 
z
" transform="scale(0.015625)"/>
       </defs>
       <use xlink:href="#CMR17-31" transform="scale(0.996264)"/>
       <use xlink:href="#CMR17-30" transform="translate(45.690477 0) scale(0.996264)"/>
       <use xlink:href="#CMR17-32" transform="translate(91.380954 0) scale(0.996264)"/>
       <use xlink:href="#CMR17-34" transform="translate(137.071431 0) scale(0.996264)"/>
      </g>
     </g>
    </g>
    <g id="text_7">
     <!-- \textbf{Number of MPI Ranks} -->
     <g transform="translate(184.176912 334.358175) scale(0.1 -0.1)">
      <defs>
       <path id="CMSSBX10-4e" d="M 1939 4222 
C 1805 4480 1613 4480 1485 4480 
L 890 4480 
C 659 4480 582 4409 582 4170 
L 582 302 
C 582 70 653 -8 890 -8 
L 1062 -8 
C 1306 -8 1370 76 1370 302 
L 1370 3698 
L 1376 3698 
L 3136 251 
C 3270 -8 3462 -8 3590 -8 
L 4186 -8 
C 4429 -8 4493 76 4493 302 
L 4493 4170 
C 4493 4377 4448 4480 4186 4480 
L 4013 4480 
C 3770 4480 3706 4396 3706 4170 
L 3706 774 
L 3699 774 
L 1939 4222 
z
" transform="scale(0.015625)"/>
       <path id="CMSSBX10-75" d="M 3200 2652 
C 3200 2859 3155 2962 2893 2962 
L 2637 2962 
C 2394 2962 2330 2878 2330 2653 
L 2330 1124 
C 2330 698 2106 330 1651 330 
C 1293 330 1254 421 1254 763 
L 1254 2653 
C 1254 2859 1210 2962 947 2962 
L 691 2962 
C 461 2962 384 2891 384 2653 
L 384 820 
C 384 130 755 -64 1421 -64 
C 1594 -64 2048 -64 2349 485 
L 2349 314 
C 2349 104 2394 0 2656 0 
L 2893 0 
C 3136 0 3200 84 3200 310 
L 3200 2652 
z
" transform="scale(0.015625)"/>
       <path id="CMSSBX10-6d" d="M 5158 2096 
C 5158 2761 4877 3025 4224 3025 
C 3770 3025 3418 2812 3187 2386 
C 3085 3012 2541 3012 2272 3012 
C 2150 3012 1882 3012 1594 2803 
C 1395 2658 1267 2455 1222 2360 
L 1216 2360 
L 1216 2687 
C 1216 2896 1171 3001 909 3001 
L 691 3001 
C 461 3001 384 2930 384 2690 
L 384 310 
C 384 78 454 0 691 0 
L 947 0 
C 1190 0 1254 84 1254 309 
L 1254 1735 
C 1254 2315 1645 2560 1958 2560 
C 2266 2560 2336 2424 2336 2082 
L 2336 309 
C 2336 78 2406 0 2643 0 
L 2899 0 
C 3142 0 3206 84 3206 309 
L 3206 1735 
C 3206 2315 3597 2560 3910 2560 
C 4218 2560 4288 2424 4288 2082 
L 4288 309 
C 4288 78 4358 0 4595 0 
L 4851 0 
C 5094 0 5158 84 5158 309 
L 5158 2096 
z
" transform="scale(0.015625)"/>
       <path id="CMSSBX10-62" d="M 1242 4170 
C 1242 4377 1197 4480 934 4480 
L 698 4480 
C 467 4480 390 4409 390 4170 
L 390 302 
C 390 70 461 -8 698 -8 
L 954 -8 
C 1062 -8 1254 -8 1261 243 
C 1555 -82 1882 -82 1984 -82 
C 3347 -82 3347 1161 3347 1485 
C 3347 1795 3347 3025 2144 3025 
C 1619 3025 1299 2728 1242 2663 
L 1242 4170 
z
M 1261 2333 
C 1344 2411 1536 2560 1830 2560 
C 2477 2560 2477 1964 2477 1477 
C 2477 999 2477 384 1760 384 
C 1491 384 1331 546 1261 637 
L 1261 2333 
z
" transform="scale(0.015625)"/>
       <path id="CMSSBX10-65" d="M 2758 1385 
C 2906 1385 3066 1385 3066 1678 
C 3066 2514 2682 3072 1728 3072 
C 704 3072 198 2491 198 1510 
C 198 452 806 -64 1811 -64 
C 2054 -64 2419 -32 2842 182 
C 2982 253 3027 272 3027 350 
C 3027 395 3008 582 3002 633 
C 2976 833 2970 839 2912 839 
C 2886 839 2874 839 2803 775 
C 2426 447 2042 402 1837 402 
C 1114 402 1037 974 1018 1385 
L 2758 1385 
z
M 1024 1728 
C 1043 2122 1171 2606 1728 2606 
C 2240 2606 2336 2231 2355 1728 
L 1024 1728 
z
" transform="scale(0.015625)"/>
       <path id="CMSSBX10-72" d="M 1242 1496 
C 1242 2115 1747 2368 2150 2368 
C 2266 2368 2278 2368 2278 2555 
L 2278 2860 
C 2278 2989 2278 3034 2163 3034 
C 1984 3034 1517 2970 1216 2271 
L 1210 2271 
L 1210 2690 
C 1210 2897 1165 3001 902 3001 
L 698 3001 
C 467 3001 390 2930 390 2690 
L 390 310 
C 390 78 461 0 698 0 
L 934 0 
C 1178 0 1242 84 1242 312 
L 1242 1496 
z
" transform="scale(0.015625)"/>
       <path id="CMSSBX10-6f" d="M 3315 1459 
C 3315 2517 2803 3072 1760 3072 
C 691 3072 198 2497 198 1459 
C 198 407 749 -64 1754 -64 
C 2758 -64 3315 401 3315 1459 
z
M 1760 440 
C 1069 440 1069 1020 1069 1536 
C 1069 2033 1069 2606 1754 2606 
C 2445 2606 2445 2039 2445 1536 
C 2445 1027 2445 440 1760 440 
z
" transform="scale(0.015625)"/>
       <path id="CMSSBX10-66" d="M 1402 2496 
L 1709 2496 
C 1786 2496 2016 2496 2016 2729 
C 2016 2962 1786 2962 1709 2962 
L 1382 2962 
L 1382 3668 
C 1382 3837 1382 4096 1798 4096 
C 2003 4096 2131 4038 2259 3915 
C 2304 3863 2323 3850 2355 3850 
C 2438 3850 2438 3915 2438 4018 
L 2438 4316 
C 2438 4471 2432 4477 2214 4523 
C 2029 4561 1894 4561 1798 4561 
C 1318 4561 550 4452 550 3480 
L 550 2962 
C 416 2962 192 2962 192 2729 
C 192 2496 410 2496 550 2496 
L 550 310 
C 550 78 621 0 858 0 
L 1094 0 
C 1338 0 1402 84 1402 310 
L 1402 2496 
z
" transform="scale(0.015625)"/>
       <path id="CMSSBX10-4d" d="M 3552 2106 
C 3418 1776 3181 1181 3130 955 
L 3123 955 
C 3066 1187 2803 1828 2669 2171 
L 1850 4215 
C 1741 4480 1536 4480 1421 4480 
L 890 4480 
C 659 4480 582 4409 582 4170 
L 582 302 
C 582 70 653 -8 890 -8 
L 1062 -8 
C 1306 -8 1370 76 1370 302 
L 1370 3646 
L 1376 3646 
C 1446 3355 1734 2637 1888 2256 
L 2630 412 
C 2746 134 2899 134 3117 134 
C 3334 134 3488 134 3603 412 
L 4422 2443 
C 4486 2598 4832 3478 4877 3646 
L 4883 3646 
L 4883 302 
C 4883 95 4928 -8 5190 -8 
L 5363 -8 
C 5606 -8 5670 76 5670 302 
L 5670 4170 
C 5670 4377 5626 4480 5363 4480 
L 4826 4480 
C 4666 4480 4506 4467 4397 4202 
L 3552 2106 
z
" transform="scale(0.015625)"/>
       <path id="CMSSBX10-50" d="M 1523 1728 
L 2496 1728 
C 3501 1728 4102 2155 4102 3085 
C 4102 4060 3475 4480 2490 4480 
L 890 4480 
C 659 4480 582 4409 582 4170 
L 582 298 
C 582 66 653 -12 890 -12 
L 1216 -12 
C 1459 -12 1523 72 1523 299 
L 1523 1728 
z
M 2291 3924 
C 3130 3924 3213 3537 3213 3085 
C 3213 2652 3142 2239 2285 2239 
L 1504 2239 
L 1504 3924 
L 2291 3924 
z
" transform="scale(0.015625)"/>
       <path id="CMSSBX10-49" d="M 1530 4170 
C 1530 4377 1485 4480 1222 4480 
L 896 4480 
C 666 4480 589 4409 589 4170 
L 589 302 
C 589 70 659 -8 896 -8 
L 1222 -8 
C 1466 -8 1530 76 1530 302 
L 1530 4170 
z
" transform="scale(0.015625)"/>
       <path id="CMSSBX10-52" d="M 3091 2059 
C 3494 2156 4102 2402 4102 3205 
C 4102 4480 2714 4480 2426 4480 
L 890 4480 
C 659 4480 582 4409 582 4170 
L 582 298 
C 582 66 653 -12 890 -12 
L 1197 -12 
C 1440 -12 1504 71 1504 296 
L 1504 1984 
L 2214 1984 
L 3264 142 
C 3354 -12 3424 -12 3565 -12 
L 3942 -12 
C 4070 -12 4179 -12 4179 181 
L 3091 2059 
z
M 1504 2450 
L 1504 3924 
L 2336 3924 
C 3078 3924 3213 3623 3213 3191 
C 3213 2804 3123 2450 2336 2450 
L 1504 2450 
z
" transform="scale(0.015625)"/>
       <path id="CMSSBX10-61" d="M 2970 2050 
C 2970 3072 1997 3072 1677 3072 
C 1376 3072 1056 3046 627 2868 
C 493 2811 461 2792 461 2722 
C 461 2677 499 2300 506 2248 
C 512 2209 544 2177 589 2177 
C 621 2177 640 2196 659 2216 
C 934 2508 1254 2651 1651 2651 
C 1997 2651 2099 2435 2099 2049 
L 2099 1820 
C 1875 1820 198 1820 198 868 
C 198 415 557 -64 1120 -64 
C 1338 -64 1818 1 2118 447 
L 2118 317 
C 2118 110 2163 7 2426 7 
L 2662 7 
C 2906 7 2970 91 2970 317 
L 2970 2050 
z
M 2099 988 
C 2099 402 1491 402 1472 402 
C 1203 402 1030 639 1030 889 
C 1030 1536 1920 1536 2099 1536 
L 2099 988 
z
" transform="scale(0.015625)"/>
       <path id="CMSSBX10-6e" d="M 3200 2096 
C 3200 2761 2918 3025 2266 3025 
C 1594 3025 1306 2535 1222 2360 
L 1216 2360 
L 1216 2687 
C 1216 2896 1171 3001 909 3001 
L 691 3001 
C 461 3001 384 2930 384 2690 
L 384 310 
C 384 78 454 0 691 0 
L 947 0 
C 1190 0 1254 84 1254 309 
L 1254 1735 
C 1254 2295 1626 2560 1958 2560 
C 2266 2560 2330 2411 2330 2082 
L 2330 309 
C 2330 103 2374 0 2637 0 
L 2893 0 
C 3136 0 3200 84 3200 309 
L 3200 2096 
z
" transform="scale(0.015625)"/>
       <path id="CMSSBX10-6b" d="M 2003 1751 
L 2989 2676 
C 3066 2747 3085 2766 3085 2818 
C 3085 2954 2957 2954 2867 2954 
L 2496 2954 
C 2381 2954 2259 2954 2112 2818 
L 1190 1952 
L 1190 4170 
C 1190 4377 1146 4480 883 4480 
L 749 4480 
C 518 4480 442 4409 442 4170 
L 442 302 
C 442 70 512 -8 749 -8 
L 864 -8 
C 1107 -8 1171 76 1171 302 
L 1171 975 
L 1472 1253 
L 2304 154 
C 2413 11 2458 -8 2643 -8 
L 2950 -8 
C 3040 -8 3181 -8 3181 134 
C 3181 147 3181 192 3117 277 
L 2003 1751 
z
" transform="scale(0.015625)"/>
       <path id="CMSSBX10-73" d="M 2534 902 
C 2534 1267 2342 1496 2227 1600 
C 1971 1836 1747 1875 1478 1927 
C 1126 1992 870 2045 870 2299 
C 870 2566 1082 2619 1331 2619 
C 1760 2619 1990 2456 2157 2313 
C 2221 2248 2234 2248 2259 2248 
C 2323 2248 2336 2306 2342 2332 
C 2355 2384 2419 2747 2419 2779 
C 2419 2884 2080 2975 2010 3000 
C 1754 3072 1549 3072 1382 3072 
C 1094 3072 237 3072 237 2145 
C 237 1827 378 1633 550 1477 
C 774 1270 1024 1225 1389 1154 
C 1574 1121 1901 1062 1901 778 
C 1901 473 1651 427 1402 427 
C 1120 427 762 512 461 877 
C 429 909 410 928 371 928 
C 307 928 294 871 288 832 
C 275 743 198 378 198 313 
C 198 198 672 51 678 45 
C 1030 -64 1293 -64 1402 -64 
C 1728 -64 2534 -64 2534 902 
z
" transform="scale(0.015625)"/>
      </defs>
      <use xlink:href="#CMSSBX10-4e" transform="scale(0.996264)"/>
      <use xlink:href="#CMSSBX10-75" transform="translate(79.14808 0) scale(0.996264)"/>
      <use xlink:href="#CMSSBX10-6d" transform="translate(135.049868 0) scale(0.996264)"/>
      <use xlink:href="#CMSSBX10-62" transform="translate(221.393225 0) scale(0.996264)"/>
      <use xlink:href="#CMSSBX10-65" transform="translate(280.33917 0) scale(0.996264)"/>
      <use xlink:href="#CMSSBX10-72" transform="translate(331.259623 0) scale(0.996264)"/>
      <use xlink:href="#CMSSBX10-6f" transform="translate(404.872916 0) scale(0.996264)"/>
      <use xlink:href="#CMSSBX10-66" transform="translate(459.667741 0) scale(0.996264)"/>
      <use xlink:href="#CMSSBX10-4d" transform="translate(529.68335 0) scale(0.996264)"/>
      <use xlink:href="#CMSSBX10-50" transform="translate(627.096371 0) scale(0.996264)"/>
      <use xlink:href="#CMSSBX10-49" transform="translate(697.111981 0) scale(0.996264)"/>
      <use xlink:href="#CMSSBX10-52" transform="translate(766.574047 0) scale(0.996264)"/>
      <use xlink:href="#CMSSBX10-61" transform="translate(836.589656 0) scale(0.996264)"/>
      <use xlink:href="#CMSSBX10-6e" transform="translate(888.893851 0) scale(0.996264)"/>
      <use xlink:href="#CMSSBX10-6b" transform="translate(944.795639 0) scale(0.996264)"/>
      <use xlink:href="#CMSSBX10-73" transform="translate(997.65327 0) scale(0.996264)"/>
     </g>
    </g>
   </g>
   <g id="matplotlib.axis_2">
    <g id="ytick_1">
     <g id="line2d_13">
      <path d="M 57.6 307.584 
L 414.72 307.584 
" clip-path="url(#pa13a5897e1)" style="fill: none; stroke-dasharray: 2.96,1.28; stroke-dashoffset: 0; stroke: #808080; stroke-width: 0.8"/>
     </g>
     <g id="line2d_14">
      <defs>
       <path id="mc59d0ede7c" d="M 0 0 
L -3.5 0 
" style="stroke: #000000; stroke-width: 0.8"/>
      </defs>
      <g>
       <use xlink:href="#mc59d0ede7c" x="57.6" y="307.584" style="stroke: #000000; stroke-width: 0.8"/>
      </g>
     </g>
     <g id="text_8">
      <!-- $\mathdefault{0}$ -->
      <g transform="translate(45.618665 311.043249) scale(0.1 -0.1)">
       <use xlink:href="#CMR17-30" transform="scale(0.996264)"/>
      </g>
     </g>
    </g>
    <g id="ytick_2">
     <g id="line2d_15">
      <path d="M 57.6 255.405176 
L 414.72 255.405176 
" clip-path="url(#pa13a5897e1)" style="fill: none; stroke-dasharray: 2.96,1.28; stroke-dashoffset: 0; stroke: #808080; stroke-width: 0.8"/>
     </g>
     <g id="line2d_16">
      <g>
       <use xlink:href="#mc59d0ede7c" x="57.6" y="255.405176" style="stroke: #000000; stroke-width: 0.8"/>
      </g>
     </g>
     <g id="text_9">
      <!-- $\mathdefault{20}$ -->
      <g transform="translate(40.637329 258.864426) scale(0.1 -0.1)">
       <use xlink:href="#CMR17-32" transform="scale(0.996264)"/>
       <use xlink:href="#CMR17-30" transform="translate(45.690477 0) scale(0.996264)"/>
      </g>
     </g>
    </g>
    <g id="ytick_3">
     <g id="line2d_17">
      <path d="M 57.6 203.226353 
L 414.72 203.226353 
" clip-path="url(#pa13a5897e1)" style="fill: none; stroke-dasharray: 2.96,1.28; stroke-dashoffset: 0; stroke: #808080; stroke-width: 0.8"/>
     </g>
     <g id="line2d_18">
      <g>
       <use xlink:href="#mc59d0ede7c" x="57.6" y="203.226353" style="stroke: #000000; stroke-width: 0.8"/>
      </g>
     </g>
     <g id="text_10">
      <!-- $\mathdefault{40}$ -->
      <g transform="translate(40.637329 206.685602) scale(0.1 -0.1)">
       <use xlink:href="#CMR17-34" transform="scale(0.996264)"/>
       <use xlink:href="#CMR17-30" transform="translate(45.690477 0) scale(0.996264)"/>
      </g>
     </g>
    </g>
    <g id="ytick_4">
     <g id="line2d_19">
      <path d="M 57.6 151.047529 
L 414.72 151.047529 
" clip-path="url(#pa13a5897e1)" style="fill: none; stroke-dasharray: 2.96,1.28; stroke-dashoffset: 0; stroke: #808080; stroke-width: 0.8"/>
     </g>
     <g id="line2d_20">
      <g>
       <use xlink:href="#mc59d0ede7c" x="57.6" y="151.047529" style="stroke: #000000; stroke-width: 0.8"/>
      </g>
     </g>
     <g id="text_11">
      <!-- $\mathdefault{60}$ -->
      <g transform="translate(40.637329 154.506779) scale(0.1 -0.1)">
       <use xlink:href="#CMR17-36" transform="scale(0.996264)"/>
       <use xlink:href="#CMR17-30" transform="translate(45.690477 0) scale(0.996264)"/>
      </g>
     </g>
    </g>
    <g id="ytick_5">
     <g id="line2d_21">
      <path d="M 57.6 98.868706 
L 414.72 98.868706 
" clip-path="url(#pa13a5897e1)" style="fill: none; stroke-dasharray: 2.96,1.28; stroke-dashoffset: 0; stroke: #808080; stroke-width: 0.8"/>
     </g>
     <g id="line2d_22">
      <g>
       <use xlink:href="#mc59d0ede7c" x="57.6" y="98.868706" style="stroke: #000000; stroke-width: 0.8"/>
      </g>
     </g>
     <g id="text_12">
      <!-- $\mathdefault{80}$ -->
      <g transform="translate(40.637329 102.327955) scale(0.1 -0.1)">
       <defs>
        <path id="CMR17-38" d="M 1741 2264 
C 2144 2467 2554 2773 2554 3263 
C 2554 3841 1990 4179 1472 4179 
C 890 4179 378 3759 378 3180 
C 378 3021 416 2747 666 2505 
C 730 2442 998 2251 1171 2130 
C 883 1983 211 1634 211 934 
C 211 279 838 -128 1459 -128 
C 2144 -128 2720 362 2720 1010 
C 2720 1590 2330 1857 2074 2029 
L 1741 2264 
z
M 902 2822 
C 851 2854 595 3051 595 3351 
C 595 3739 998 4032 1459 4032 
C 1965 4032 2336 3676 2336 3262 
C 2336 2669 1670 2331 1638 2331 
C 1632 2331 1626 2331 1574 2370 
L 902 2822 
z
M 2080 1519 
C 2176 1449 2483 1240 2483 851 
C 2483 381 2010 25 1472 25 
C 890 25 448 438 448 940 
C 448 1443 838 1862 1280 2060 
L 2080 1519 
z
" transform="scale(0.015625)"/>
       </defs>
       <use xlink:href="#CMR17-38" transform="scale(0.996264)"/>
       <use xlink:href="#CMR17-30" transform="translate(45.690477 0) scale(0.996264)"/>
      </g>
     </g>
    </g>
    <g id="ytick_6">
     <g id="line2d_23">
      <path d="M 57.6 46.689882 
L 414.72 46.689882 
" clip-path="url(#pa13a5897e1)" style="fill: none; stroke-dasharray: 2.96,1.28; stroke-dashoffset: 0; stroke: #808080; stroke-width: 0.8"/>
     </g>
     <g id="line2d_24">
      <g>
       <use xlink:href="#mc59d0ede7c" x="57.6" y="46.689882" style="stroke: #000000; stroke-width: 0.8"/>
      </g>
     </g>
     <g id="text_13">
      <!-- $\mathdefault{100}$ -->
      <g transform="translate(35.655994 50.149132) scale(0.1 -0.1)">
       <use xlink:href="#CMR17-31" transform="scale(0.996264)"/>
       <use xlink:href="#CMR17-30" transform="translate(45.690477 0) scale(0.996264)"/>
       <use xlink:href="#CMR17-30" transform="translate(91.380954 0) scale(0.996264)"/>
      </g>
     </g>
    </g>
    <g id="text_14">
     <!-- \textbf{Efficiency} -->
     <g transform="translate(29.718816 196.141491) rotate(-90) scale(0.1 -0.1)">
      <defs>
       <path id="CMSSBX10-45" d="M 1523 2016 
L 3206 2016 
C 3405 2016 3514 2062 3514 2320 
C 3514 2560 3430 2624 3206 2624 
L 1523 2624 
L 1523 3814 
L 1837 3814 
C 2336 3814 2842 3814 3341 3814 
C 3565 3814 3712 3814 3712 4122 
L 3712 4173 
C 3712 4377 3667 4480 3405 4480 
L 890 4480 
C 659 4480 582 4409 582 4170 
L 582 316 
C 582 84 653 6 890 6 
L 3501 6 
C 3744 6 3808 88 3808 310 
L 3808 400 
C 3808 704 3661 704 3450 704 
C 3117 704 2790 704 2458 704 
C 2298 704 1638 704 1523 704 
L 1523 2016 
z
" transform="scale(0.015625)"/>
       <path id="CMSSBX10-e" d="M 5318 4169 
C 5318 4376 5274 4480 5011 4480 
L 4755 4480 
C 4512 4480 4448 4396 4448 4169 
L 4448 3911 
C 4448 3704 4493 3600 4755 3600 
L 5011 3600 
C 5254 3600 5318 3684 5318 3911 
L 5318 4169 
z
M 4461 292 
C 4461 85 4506 -18 4768 -18 
L 5005 -18 
C 5248 -18 5312 66 5312 292 
L 5312 2634 
C 5312 2841 5267 2944 5005 2944 
L 4768 2944 
C 4525 2944 4461 2860 4461 2634 
L 4461 292 
z
M 3341 3683 
C 3341 3924 3379 4079 3552 4079 
C 3757 4079 3834 3937 3866 3878 
C 3878 3852 3898 3814 3942 3814 
C 4026 3814 4026 3878 4026 3982 
L 4026 4318 
C 4026 4473 4026 4480 3859 4512 
C 3712 4544 3610 4544 3546 4544 
C 2861 4544 2509 4182 2509 3476 
L 2509 292 
C 2509 60 2579 -18 2816 -18 
L 3053 -18 
C 3296 -18 3360 66 3360 292 
L 3360 2478 
L 3718 2478 
C 3795 2478 4026 2478 4026 2711 
C 4026 2944 3795 2944 3718 2944 
L 3341 2944 
L 3341 3683 
z
M 1382 3664 
C 1382 3864 1402 4079 1696 4079 
C 1914 4079 2016 3969 2086 3878 
C 2106 3859 2125 3833 2163 3833 
C 2246 3833 2246 3898 2246 4001 
L 2246 4299 
C 2246 4454 2240 4460 2054 4506 
C 1888 4544 1766 4544 1683 4544 
C 1005 4544 550 4246 550 3469 
L 550 2944 
C 416 2944 192 2944 192 2711 
C 192 2478 410 2478 550 2478 
L 550 292 
C 550 60 621 -18 858 -18 
L 1094 -18 
C 1338 -18 1402 66 1402 292 
L 1402 2478 
L 1760 2478 
C 1837 2478 2067 2478 2067 2711 
C 2067 2944 1837 2944 1760 2944 
L 1382 2944 
L 1382 3664 
z
" transform="scale(0.015625)"/>
       <path id="CMSSBX10-63" d="M 2925 330 
C 2925 402 2899 698 2886 782 
C 2886 801 2874 866 2810 866 
C 2784 866 2771 866 2707 801 
C 2598 704 2298 440 1773 440 
C 1107 440 1107 1092 1107 1503 
C 1107 2026 1139 2568 1792 2568 
C 2208 2568 2381 2464 2611 2271 
C 2688 2200 2701 2200 2726 2200 
C 2790 2200 2803 2258 2810 2284 
C 2822 2336 2886 2697 2886 2729 
C 2886 2787 2842 2813 2733 2865 
C 2426 3007 2234 3072 1786 3072 
C 832 3072 237 2620 237 1491 
C 237 420 787 -64 1754 -64 
C 1926 -64 2310 -64 2739 159 
C 2918 258 2925 265 2925 330 
z
" transform="scale(0.015625)"/>
       <path id="CMSSBX10-69" d="M 653 4480 
C 448 4480 346 4441 346 4182 
L 346 3885 
C 346 3678 410 3594 646 3594 
L 979 3594 
C 1286 3594 1286 3730 1286 4034 
C 1286 4344 1286 4480 979 4480 
L 653 4480 
z
M 1242 2634 
C 1242 2841 1197 2944 934 2944 
L 698 2944 
C 467 2944 390 2873 390 2634 
L 390 292 
C 390 60 461 -18 698 -18 
L 934 -18 
C 1178 -18 1242 66 1242 292 
L 1242 2634 
z
" transform="scale(0.015625)"/>
       <path id="CMSSBX10-79" d="M 2995 2640 
C 3027 2724 3027 2737 3027 2769 
C 3027 2944 2854 2944 2771 2944 
L 2630 2944 
C 2528 2944 2387 2944 2291 2795 
C 2272 2763 1754 1332 1722 897 
L 1715 897 
C 1683 1214 1421 1817 1146 2439 
C 966 2847 922 2944 602 2944 
L 435 2944 
C 346 2944 186 2944 186 2776 
C 186 2750 205 2705 218 2672 
L 1427 -23 
C 1376 -160 1357 -231 1338 -296 
C 1261 -509 1152 -801 806 -801 
C 595 -801 448 -711 378 -665 
C 346 -646 333 -639 314 -639 
C 282 -639 230 -659 230 -736 
C 230 -789 269 -1239 288 -1265 
C 346 -1344 691 -1344 794 -1344 
C 1587 -1344 1901 -581 1952 -425 
L 2995 2640 
z
" transform="scale(0.015625)"/>
      </defs>
      <use xlink:href="#CMSSBX10-45" transform="scale(0.996264)"/>
      <use xlink:href="#CMSSBX10-e" transform="translate(63.927295 0) scale(0.996264)"/>
      <use xlink:href="#CMSSBX10-63" transform="translate(152.761373 0) scale(0.996264)"/>
      <use xlink:href="#CMSSBX10-69" transform="translate(201.467884 0) scale(0.996264)"/>
      <use xlink:href="#CMSSBX10-65" transform="translate(226.928103 0) scale(0.996264)"/>
      <use xlink:href="#CMSSBX10-6e" transform="translate(277.848556 0) scale(0.996264)"/>
      <use xlink:href="#CMSSBX10-63" transform="translate(333.750344 0) scale(0.996264)"/>
      <use xlink:href="#CMSSBX10-79" transform="translate(382.456854 0) scale(0.996264)"/>
     </g>
    </g>
   </g>
   <g id="line2d_25">
    <path d="M 57.6 46.689882 
L 93.062383 67.877143 
L 128.524765 113.344121 
L 199.449531 161.148294 
L 234.911913 165.769675 
L 270.374296 190.481 
L 305.836679 196.158459 
L 341.299061 201.009907 
L 376.761444 212.157118 
L 412.223827 217.063311 
" clip-path="url(#pa13a5897e1)" style="fill: none; stroke: #ff0000; stroke-width: 1.5; stroke-linecap: square"/>
    <defs>
     <path id="mef9e9dd846" d="M 0 3 
C 0.795609 3 1.55874 2.683901 2.12132 2.12132 
C 2.683901 1.55874 3 0.795609 3 0 
C 3 -0.795609 2.683901 -1.55874 2.12132 -2.12132 
C 1.55874 -2.683901 0.795609 -3 0 -3 
C -0.795609 -3 -1.55874 -2.683901 -2.12132 -2.12132 
C -2.683901 -1.55874 -3 -0.795609 -3 0 
C -3 0.795609 -2.683901 1.55874 -2.12132 2.12132 
C -1.55874 2.683901 -0.795609 3 0 3 
z
" style="stroke: #ff0000"/>
    </defs>
    <g clip-path="url(#pa13a5897e1)">
     <use xlink:href="#mef9e9dd846" x="57.6" y="46.689882" style="fill: #ff0000; stroke: #ff0000"/>
     <use xlink:href="#mef9e9dd846" x="93.062383" y="67.877143" style="fill: #ff0000; stroke: #ff0000"/>
     <use xlink:href="#mef9e9dd846" x="128.524765" y="113.344121" style="fill: #ff0000; stroke: #ff0000"/>
     <use xlink:href="#mef9e9dd846" x="199.449531" y="161.148294" style="fill: #ff0000; stroke: #ff0000"/>
     <use xlink:href="#mef9e9dd846" x="234.911913" y="165.769675" style="fill: #ff0000; stroke: #ff0000"/>
     <use xlink:href="#mef9e9dd846" x="270.374296" y="190.481" style="fill: #ff0000; stroke: #ff0000"/>
     <use xlink:href="#mef9e9dd846" x="305.836679" y="196.158459" style="fill: #ff0000; stroke: #ff0000"/>
     <use xlink:href="#mef9e9dd846" x="341.299061" y="201.009907" style="fill: #ff0000; stroke: #ff0000"/>
     <use xlink:href="#mef9e9dd846" x="376.761444" y="212.157118" style="fill: #ff0000; stroke: #ff0000"/>
     <use xlink:href="#mef9e9dd846" x="412.223827" y="217.063311" style="fill: #ff0000; stroke: #ff0000"/>
    </g>
   </g>
   <g id="line2d_26">
    <path d="M 57.6 46.689882 
L 93.062383 70.053535 
L 128.524765 102.499706 
L 199.449531 138.759306 
L 234.911913 145.080176 
L 270.374296 160.04499 
L 305.836679 178.964325 
L 341.299061 190.392975 
L 376.761444 186.805797 
L 412.223827 204.42146 
" clip-path="url(#pa13a5897e1)" style="fill: none; stroke: #0000ff; stroke-width: 1.5; stroke-linecap: square"/>
    <defs>
     <path id="m244731f697" d="M 0 3 
C 0.795609 3 1.55874 2.683901 2.12132 2.12132 
C 2.683901 1.55874 3 0.795609 3 0 
C 3 -0.795609 2.683901 -1.55874 2.12132 -2.12132 
C 1.55874 -2.683901 0.795609 -3 0 -3 
C -0.795609 -3 -1.55874 -2.683901 -2.12132 -2.12132 
C -2.683901 -1.55874 -3 -0.795609 -3 0 
C -3 0.795609 -2.683901 1.55874 -2.12132 2.12132 
C -1.55874 2.683901 -0.795609 3 0 3 
z
" style="stroke: #0000ff"/>
    </defs>
    <g clip-path="url(#pa13a5897e1)">
     <use xlink:href="#m244731f697" x="57.6" y="46.689882" style="fill: #0000ff; stroke: #0000ff"/>
     <use xlink:href="#m244731f697" x="93.062383" y="70.053535" style="fill: #0000ff; stroke: #0000ff"/>
     <use xlink:href="#m244731f697" x="128.524765" y="102.499706" style="fill: #0000ff; stroke: #0000ff"/>
     <use xlink:href="#m244731f697" x="199.449531" y="138.759306" style="fill: #0000ff; stroke: #0000ff"/>
     <use xlink:href="#m244731f697" x="234.911913" y="145.080176" style="fill: #0000ff; stroke: #0000ff"/>
     <use xlink:href="#m244731f697" x="270.374296" y="160.04499" style="fill: #0000ff; stroke: #0000ff"/>
     <use xlink:href="#m244731f697" x="305.836679" y="178.964325" style="fill: #0000ff; stroke: #0000ff"/>
     <use xlink:href="#m244731f697" x="341.299061" y="190.392975" style="fill: #0000ff; stroke: #0000ff"/>
     <use xlink:href="#m244731f697" x="376.761444" y="186.805797" style="fill: #0000ff; stroke: #0000ff"/>
     <use xlink:href="#m244731f697" x="412.223827" y="204.42146" style="fill: #0000ff; stroke: #0000ff"/>
    </g>
   </g>
   <g id="line2d_27">
    <path d="M 57.6 46.689882 
L 93.062383 75.437694 
L 128.524765 109.922984 
L 149.268929 116.221302 
L 184.731312 136.83761 
L 220.193695 138.111424 
L 255.656077 148.645462 
L 291.11846 156.722416 
L 326.580843 165.346989 
L 362.043225 180.97238 
" clip-path="url(#pa13a5897e1)" style="fill: none; stroke: #ffa500; stroke-width: 1.5; stroke-linecap: square"/>
    <defs>
     <path id="m0f3bbc187b" d="M 0 3 
C 0.795609 3 1.55874 2.683901 2.12132 2.12132 
C 2.683901 1.55874 3 0.795609 3 0 
C 3 -0.795609 2.683901 -1.55874 2.12132 -2.12132 
C 1.55874 -2.683901 0.795609 -3 0 -3 
C -0.795609 -3 -1.55874 -2.683901 -2.12132 -2.12132 
C -2.683901 -1.55874 -3 -0.795609 -3 0 
C -3 0.795609 -2.683901 1.55874 -2.12132 2.12132 
C -1.55874 2.683901 -0.795609 3 0 3 
z
" style="stroke: #ffa500"/>
    </defs>
    <g clip-path="url(#pa13a5897e1)">
     <use xlink:href="#m0f3bbc187b" x="57.6" y="46.689882" style="fill: #ffa500; stroke: #ffa500"/>
     <use xlink:href="#m0f3bbc187b" x="93.062383" y="75.437694" style="fill: #ffa500; stroke: #ffa500"/>
     <use xlink:href="#m0f3bbc187b" x="128.524765" y="109.922984" style="fill: #ffa500; stroke: #ffa500"/>
     <use xlink:href="#m0f3bbc187b" x="149.268929" y="116.221302" style="fill: #ffa500; stroke: #ffa500"/>
     <use xlink:href="#m0f3bbc187b" x="184.731312" y="136.83761" style="fill: #ffa500; stroke: #ffa500"/>
     <use xlink:href="#m0f3bbc187b" x="220.193695" y="138.111424" style="fill: #ffa500; stroke: #ffa500"/>
     <use xlink:href="#m0f3bbc187b" x="255.656077" y="148.645462" style="fill: #ffa500; stroke: #ffa500"/>
     <use xlink:href="#m0f3bbc187b" x="291.11846" y="156.722416" style="fill: #ffa500; stroke: #ffa500"/>
     <use xlink:href="#m0f3bbc187b" x="326.580843" y="165.346989" style="fill: #ffa500; stroke: #ffa500"/>
     <use xlink:href="#m0f3bbc187b" x="362.043225" y="180.97238" style="fill: #ffa500; stroke: #ffa500"/>
    </g>
   </g>
   <g id="LineCollection_1">
    <path clip-path="url(#pa13a5897e1)" style="fill: none; stroke-dasharray: 5.55,2.4; stroke-dashoffset: 0; stroke: #008000; stroke-width: 1.5"/>
   </g>
   <g id="patch_3">
    <path d="M 57.6 307.584 
L 57.6 41.472 
" style="fill: none; stroke: #000000; stroke-width: 0.8; stroke-linejoin: miter; stroke-linecap: square"/>
   </g>
   <g id="patch_4">
    <path d="M 414.72 307.584 
L 414.72 41.472 
" style="fill: none; stroke: #000000; stroke-width: 0.8; stroke-linejoin: miter; stroke-linecap: square"/>
   </g>
   <g id="patch_5">
    <path d="M 57.6 307.584 
L 414.72 307.584 
" style="fill: none; stroke: #000000; stroke-width: 0.8; stroke-linejoin: miter; stroke-linecap: square"/>
   </g>
   <g id="patch_6">
    <path d="M 57.6 41.472 
L 414.72 41.472 
" style="fill: none; stroke: #000000; stroke-width: 0.8; stroke-linejoin: miter; stroke-linecap: square"/>
   </g>
   <g id="text_15">
    <!-- Weak scaling efficiency vs number of MPI Ranks for ESPResSo/4.2.2-foss-2023a -->
    <g transform="translate(39.048681 35.472) scale(0.12 -0.12)">
     <defs>
      <path id="CMSS17-57" d="M 5581 4416 
L 5094 4416 
L 4557 2437 
C 4474 2118 4397 1801 4320 1482 
C 4205 1011 4122 681 4109 515 
L 4102 515 
C 4090 687 4006 1049 3904 1457 
C 3827 1795 3744 2131 3654 2462 
L 3123 4416 
L 2586 4416 
L 2080 2562 
L 1824 1549 
C 1632 747 1626 632 1613 505 
L 1606 505 
C 1606 543 1581 753 1402 1498 
C 1312 1868 1222 2244 1126 2601 
L 634 4416 
L 83 4416 
L 1299 0 
L 1830 0 
L 2336 1839 
L 2592 2851 
C 2765 3564 2803 3742 2816 3901 
L 2822 3901 
C 2822 3876 2880 3474 3130 2545 
L 3808 0 
L 4365 0 
L 5581 4416 
z
" transform="scale(0.015625)"/>
      <path id="CMSS17-65" d="M 2502 1377 
C 2502 1590 2490 2003 2285 2345 
C 2061 2713 1696 2816 1421 2816 
C 755 2816 192 2188 192 1375 
C 192 582 774 -64 1510 -64 
C 1798 -64 2150 19 2470 248 
C 2470 274 2458 414 2451 420 
C 2451 433 2432 630 2432 656 
C 2125 407 1773 325 1517 325 
C 1107 325 666 667 646 1377 
L 2502 1377 
z
M 698 1728 
C 781 2084 1062 2421 1421 2421 
C 1517 2421 1965 2421 2080 1728 
L 698 1728 
z
" transform="scale(0.015625)"/>
      <path id="CMSS17-61" d="M 2406 1791 
C 2406 2392 1978 2808 1402 2808 
C 1120 2808 813 2757 461 2553 
L 499 2135 
C 659 2248 934 2432 1395 2432 
C 1722 2432 1920 2180 1920 1782 
L 1920 1536 
C 896 1536 256 1238 256 726 
C 256 461 416 -64 947 -64 
C 1043 -64 1562 -64 1933 217 
L 1933 -19 
L 2406 -19 
L 2406 1791 
z
M 1920 816 
C 1920 701 1920 548 1728 434 
C 1562 325 1350 325 1261 325 
C 941 325 723 511 723 744 
C 723 1211 1722 1211 1920 1211 
L 1920 816 
z
" transform="scale(0.015625)"/>
      <path id="CMSS17-6b" d="M 1696 1688 
L 2688 2739 
L 2074 2739 
L 954 1554 
L 954 4416 
L 480 4416 
L 480 0 
L 947 0 
L 947 892 
L 1376 1344 
L 2278 0 
L 2822 0 
L 1696 1688 
z
" transform="scale(0.015625)"/>
      <path id="CMSS17-73" d="M 2061 2627 
C 1683 2807 1389 2807 1197 2807 
C 742 2807 198 2648 198 2003 
C 198 1359 902 1218 1094 1179 
C 1389 1122 1715 1058 1715 740 
C 1715 337 1254 337 1171 337 
C 915 337 563 407 243 638 
L 166 210 
C 531 0 883 -64 1178 -64 
C 1965 -64 2163 416 2163 781 
C 2163 1094 1984 1305 1862 1401 
C 1651 1568 1574 1587 1050 1696 
C 960 1709 646 1779 646 2066 
C 646 2432 1050 2432 1139 2432 
C 1555 2432 1811 2303 1984 2208 
L 2061 2627 
z
" transform="scale(0.015625)"/>
      <path id="CMSS17-63" d="M 2464 2541 
C 2464 2585 2170 2714 2093 2739 
C 1882 2816 1613 2816 1542 2816 
C 710 2816 211 2093 211 1363 
C 211 595 768 -64 1517 -64 
C 1946 -64 2253 76 2502 242 
L 2464 664 
C 2189 453 1869 337 1523 337 
C 1024 337 698 774 698 1369 
C 698 1831 909 2414 1549 2414 
C 1901 2414 2099 2343 2394 2145 
L 2464 2541 
z
" transform="scale(0.015625)"/>
      <path id="CMSS17-6c" d="M 947 4416 
L 474 4416 
L 474 0 
L 947 0 
L 947 4416 
z
" transform="scale(0.015625)"/>
      <path id="CMSS17-69" d="M 979 4183 
L 442 4183 
L 442 3648 
L 979 3648 
L 979 4183 
z
M 947 2739 
L 474 2739 
L 474 0 
L 947 0 
L 947 2739 
z
" transform="scale(0.015625)"/>
      <path id="CMSS17-6e" d="M 2618 1877 
C 2618 2283 2522 2816 1798 2816 
C 1389 2816 1120 2606 941 2389 
L 941 2758 
L 474 2758 
L 474 0 
L 960 0 
L 960 1559 
C 960 1964 1114 2428 1549 2428 
C 2112 2428 2131 2048 2131 1829 
L 2131 0 
L 2618 0 
L 2618 1877 
z
" transform="scale(0.015625)"/>
      <path id="CMSS17-67" d="M 2848 2808 
C 2483 2808 2170 2738 1914 2617 
C 1702 2777 1485 2808 1338 2808 
C 781 2808 358 2349 358 1814 
C 358 1468 550 1207 563 1195 
C 448 1035 384 863 384 672 
C 384 448 474 289 544 200 
C 211 -3 166 -314 166 -435 
C 166 -898 749 -1280 1498 -1280 
C 2253 -1280 2835 -898 2835 -428 
C 2835 448 1856 448 1587 448 
L 1069 448 
C 973 448 717 448 717 791 
C 717 921 774 1004 781 1010 
C 877 940 1075 832 1338 832 
C 1869 832 2310 1278 2310 1827 
C 2310 2132 2170 2355 2112 2432 
L 2131 2432 
C 2150 2432 2419 2432 2515 2432 
C 2720 2432 2739 2429 2918 2419 
L 2848 2808 
z
M 1338 1182 
C 1120 1182 813 1315 813 1823 
C 813 2375 1165 2464 1331 2464 
C 1549 2464 1856 2331 1856 1823 
C 1856 1271 1504 1182 1338 1182 
z
M 1581 -10 
C 1734 -10 2381 -10 2381 -442 
C 2381 -714 1984 -929 1504 -929 
C 1018 -929 621 -720 621 -435 
C 621 -403 621 -10 1062 -10 
L 1581 -10 
z
" transform="scale(0.015625)"/>
      <path id="CMSS17-e" d="M 4422 4416 
L 3910 4416 
L 3910 3906 
L 4422 3906 
L 4422 4416 
z
M 4403 2737 
L 3930 2737 
L 3930 0 
L 4403 0 
L 4403 2737 
z
M 2739 2368 
L 3437 2368 
L 3437 2737 
L 2726 2737 
L 2726 3578 
C 2726 3919 2880 4092 3085 4092 
C 3226 4092 3360 4042 3437 3992 
L 3437 4416 
C 3322 4461 3270 4480 3085 4480 
C 2605 4480 2266 3995 2266 3376 
L 2266 0 
L 2739 0 
L 2739 2368 
z
M 1075 2368 
L 1773 2368 
L 1773 2737 
L 1062 2737 
L 1062 3565 
C 1062 3995 1325 4092 1510 4092 
C 1619 4092 1773 4070 1920 3999 
L 1920 4410 
C 1754 4480 1728 4480 1510 4480 
C 986 4480 602 3999 602 3366 
L 602 2737 
L 160 2737 
L 160 2368 
L 602 2368 
L 602 0 
L 1075 0 
L 1075 2368 
z
" transform="scale(0.015625)"/>
      <path id="CMSS17-79" d="M 2675 2752 
L 2176 2752 
C 1632 1294 1446 702 1434 383 
L 1427 383 
C 1408 696 1126 1460 902 2007 
L 602 2752 
L 83 2752 
L 1216 13 
C 1146 -178 1043 -465 1011 -529 
C 870 -885 774 -885 672 -885 
C 646 -885 442 -885 211 -809 
L 250 -1229 
C 410 -1261 570 -1280 685 -1280 
C 845 -1280 1165 -1280 1459 -497 
L 2675 2752 
z
" transform="scale(0.015625)"/>
      <path id="CMSS17-76" d="M 2675 2752 
L 2176 2752 
L 1747 1556 
C 1613 1165 1421 627 1389 352 
L 1382 352 
C 1370 468 1318 634 1286 749 
C 1248 890 1197 1056 1158 1172 
L 595 2752 
L 83 2752 
L 1094 0 
L 1664 0 
L 2675 2752 
z
" transform="scale(0.015625)"/>
      <path id="CMSS17-75" d="M 2618 2739 
L 2131 2739 
L 2131 972 
C 2131 498 1786 306 1421 306 
C 998 306 960 447 960 709 
L 960 2739 
L 474 2739 
L 474 678 
C 474 179 646 -64 1088 -64 
C 1306 -64 1798 -13 2144 306 
L 2144 0 
L 2618 0 
L 2618 2739 
z
" transform="scale(0.015625)"/>
      <path id="CMSS17-6d" d="M 4288 1877 
C 4288 2308 4179 2816 3462 2816 
C 2982 2816 2694 2516 2566 2331 
C 2451 2670 2182 2816 1798 2816 
C 1363 2816 1088 2568 941 2389 
L 941 2758 
L 474 2758 
L 474 0 
L 960 0 
L 960 1559 
C 960 1939 1101 2428 1555 2428 
C 2138 2428 2138 2016 2138 1829 
L 2138 0 
L 2624 0 
L 2624 1559 
C 2624 1939 2765 2428 3219 2428 
C 3802 2428 3802 2016 3802 1829 
L 3802 0 
L 4288 0 
L 4288 1877 
z
" transform="scale(0.015625)"/>
      <path id="CMSS17-62" d="M 954 4416 
L 480 4416 
L 480 -13 
L 966 -13 
L 966 274 
C 1210 38 1504 -64 1766 -64 
C 2381 -64 2880 549 2880 1352 
C 2880 2086 2496 2756 1926 2756 
C 1523 2756 1165 2591 954 2419 
L 954 4416 
z
M 966 2046 
C 1107 2222 1306 2368 1587 2368 
C 1965 2368 2394 2097 2394 1352 
C 2394 558 1882 325 1530 325 
C 1402 325 1267 356 1139 464 
C 966 615 966 709 966 797 
L 966 2046 
z
" transform="scale(0.015625)"/>
      <path id="CMSS17-72" d="M 954 1363 
C 954 1965 1395 2368 1958 2368 
L 1958 2789 
C 1549 2789 1165 2585 934 2253 
L 934 2758 
L 480 2758 
L 480 0 
L 954 0 
L 954 1363 
z
" transform="scale(0.015625)"/>
      <path id="CMSS17-6f" d="M 2829 1356 
C 2829 2176 2221 2816 1504 2816 
C 768 2816 173 2157 173 1356 
C 173 544 787 -64 1498 -64 
C 2227 -64 2829 563 2829 1356 
z
M 1504 337 
C 1050 337 659 709 659 1408 
C 659 2151 1114 2427 1498 2427 
C 1914 2427 2342 2126 2342 1408 
C 2342 683 1926 337 1504 337 
z
" transform="scale(0.015625)"/>
      <path id="CMSS17-66" d="M 1075 2368 
L 1722 2368 
L 1722 2737 
L 1062 2737 
L 1062 3559 
C 1062 4014 1408 4092 1606 4092 
C 1670 4092 1850 4092 2080 4009 
L 2080 4429 
C 1933 4461 1754 4480 1613 4480 
C 1018 4480 602 3993 602 3359 
L 602 2737 
L 160 2737 
L 160 2368 
L 602 2368 
L 602 0 
L 1075 0 
L 1075 2368 
z
" transform="scale(0.015625)"/>
      <path id="CMSS17-4d" d="M 3194 2371 
L 2886 1473 
C 2835 1307 2662 791 2624 587 
L 2618 587 
C 2598 715 2560 849 2458 1174 
C 2400 1365 2336 1562 2272 1741 
L 1325 4416 
L 576 4416 
L 576 0 
L 1075 0 
L 1075 3900 
L 1082 3900 
C 1082 3894 1139 3613 1530 2499 
L 2374 96 
L 2848 96 
L 3610 2231 
C 3661 2378 3821 2843 3891 3066 
C 3955 3257 4115 3728 4154 3913 
L 4160 3913 
L 4160 0 
L 4666 0 
L 4666 4416 
L 3923 4416 
L 3194 2371 
z
" transform="scale(0.015625)"/>
      <path id="CMSS17-50" d="M 2106 1856 
C 2874 1856 3501 2453 3501 3158 
C 3501 3850 2899 4453 2067 4453 
L 570 4453 
L 570 0 
L 1107 0 
L 1107 1856 
L 2106 1856 
z
M 1926 4096 
C 2669 4096 2995 3627 2995 3157 
C 2995 2720 2694 2226 1926 2226 
L 1094 2226 
L 1094 4096 
L 1926 4096 
z
" transform="scale(0.015625)"/>
      <path id="CMSS17-49" d="M 1094 4416 
L 557 4416 
L 557 0 
L 1094 0 
L 1094 4416 
z
" transform="scale(0.015625)"/>
      <path id="CMSS17-52" d="M 2522 2109 
L 2534 2115 
C 3533 2459 3539 3147 3539 3268 
C 3539 3873 2925 4453 2003 4453 
L 570 4453 
L 570 32 
L 1094 32 
L 1094 2048 
L 2035 2048 
L 3168 32 
L 3706 32 
L 2522 2109 
z
M 1094 2437 
L 1094 4096 
L 1933 4096 
C 2746 4096 3034 3637 3034 3267 
C 3034 2922 2778 2437 1933 2437 
L 1094 2437 
z
" transform="scale(0.015625)"/>
      <path id="CMSS17-45" d="M 1958 433 
C 1446 433 1216 433 1101 433 
L 1101 2107 
L 3085 2107 
L 3085 2496 
L 1101 2496 
L 1101 4009 
L 1926 4009 
C 2003 4009 2080 4009 2157 4009 
L 3251 4009 
L 3251 4416 
L 563 4416 
L 563 0 
L 3334 0 
L 3334 433 
L 1958 433 
z
" transform="scale(0.015625)"/>
      <path id="CMSS17-53" d="M 2797 4169 
C 2515 4334 2208 4480 1690 4480 
C 864 4480 333 3879 333 3266 
C 333 3025 403 2753 653 2475 
C 902 2196 1184 2121 1542 2033 
C 1690 1994 1939 1924 1984 1906 
C 2342 1767 2515 1444 2515 1140 
C 2515 742 2202 318 1645 318 
C 1453 318 890 318 358 819 
L 269 318 
C 794 -64 1363 -128 1651 -128 
C 2438 -128 3002 488 3002 1186 
C 3002 1440 2925 1763 2656 2061 
C 2394 2347 2163 2410 1638 2549 
C 1338 2626 1146 2677 986 2873 
C 877 3013 819 3146 819 3317 
C 819 3673 1126 4060 1690 4060 
C 1971 4060 2336 4002 2707 3660 
L 2797 4169 
z
" transform="scale(0.015625)"/>
      <path id="CMSS17-2f" d="M 2637 4545 
C 2669 4627 2669 4640 2669 4653 
C 2669 4729 2611 4768 2560 4768 
C 2483 4768 2458 4717 2432 4640 
L 365 -1377 
C 333 -1460 333 -1473 333 -1486 
C 333 -1562 390 -1600 442 -1600 
C 518 -1600 544 -1549 570 -1473 
L 2637 4545 
z
" transform="scale(0.015625)"/>
      <path id="CMSS17-34" d="M 2253 1088 
L 2835 1088 
L 2835 1477 
L 2253 1477 
L 2253 4192 
L 1690 4192 
L 166 1477 
L 166 1088 
L 1747 1088 
L 1747 0 
L 2253 0 
L 2253 1088 
z
M 659 1477 
C 1030 2127 1766 3439 1766 3885 
L 1766 1477 
L 659 1477 
z
" transform="scale(0.015625)"/>
      <path id="CMSS17-2e" d="M 1088 510 
L 576 510 
L 576 0 
L 1088 0 
L 1088 510 
z
" transform="scale(0.015625)"/>
      <path id="CMSS17-32" d="M 1651 1357 
C 1830 1541 2099 1764 2285 1987 
C 2464 2204 2701 2511 2701 2957 
C 2701 3657 2227 4288 1421 4288 
C 787 4288 422 3893 250 3274 
L 499 2929 
C 640 3510 838 3880 1338 3880 
C 1888 3880 2195 3433 2195 2942 
C 2195 2355 1747 1901 1408 1563 
C 1030 1187 659 804 301 408 
L 301 0 
L 2701 0 
L 2701 433 
L 1613 433 
C 1536 433 1459 433 1382 433 
L 742 433 
L 742 439 
L 1651 1357 
z
" transform="scale(0.015625)"/>
      <path id="CMSS17-2d" d="M 1664 1216 
L 1664 1585 
L 64 1585 
L 64 1216 
L 1664 1216 
z
" transform="scale(0.015625)"/>
      <path id="CMSS17-30" d="M 2758 2044 
C 2758 2405 2752 3077 2490 3596 
C 2227 4096 1805 4229 1504 4229 
C 1069 4229 698 3975 506 3570 
C 301 3146 243 2709 243 2044 
C 243 1589 262 1031 493 543 
C 755 5 1197 -128 1498 -128 
C 1894 -128 2278 81 2496 518 
C 2720 974 2758 1474 2758 2044 
z
M 1498 261 
C 1011 261 864 811 819 995 
C 742 1310 730 1614 730 2114 
C 730 2506 730 2948 851 3297 
C 998 3701 1254 3840 1498 3840 
C 1971 3840 2125 3372 2176 3208 
C 2272 2873 2272 2481 2272 2114 
C 2272 1526 2272 261 1498 261 
z
" transform="scale(0.015625)"/>
      <path id="CMSS17-33" d="M 1005 2025 
L 1440 2025 
C 2042 2025 2214 1507 2214 1146 
C 2214 653 1933 267 1472 267 
C 1114 267 608 444 320 912 
C 275 691 275 678 250 526 
C 550 88 1037 -128 1485 -128 
C 2214 -128 2752 473 2752 1138 
C 2752 1638 2400 2057 1920 2215 
C 2304 2424 2586 2816 2586 3273 
C 2586 3805 2093 4229 1491 4229 
C 941 4229 512 3892 333 3530 
C 378 3468 493 3284 550 3189 
C 691 3562 1056 3840 1485 3840 
C 1843 3840 2080 3607 2080 3271 
C 2080 2923 1856 2543 1478 2455 
C 1453 2455 1056 2417 1005 2411 
L 1005 2025 
z
" transform="scale(0.015625)"/>
     </defs>
     <use xlink:href="#CMSS17-57" transform="scale(0.996264)"/>
     <use xlink:href="#CMSS17-65" transform="translate(85.639712 0) scale(0.996264)"/>
     <use xlink:href="#CMSS17-61" transform="translate(127.278534 0) scale(0.996264)"/>
     <use xlink:href="#CMSS17-6b" transform="translate(172.200455 0) scale(0.996264)"/>
     <use xlink:href="#CMSS17-73" transform="translate(249.032057 0) scale(0.996264)"/>
     <use xlink:href="#CMSS17-63" transform="translate(284.945599 0) scale(0.996264)"/>
     <use xlink:href="#CMSS17-61" transform="translate(326.584421 0) scale(0.996264)"/>
     <use xlink:href="#CMSS17-6c" transform="translate(371.506342 0) scale(0.996264)"/>
     <use xlink:href="#CMSS17-69" transform="translate(393.687065 0) scale(0.996264)"/>
     <use xlink:href="#CMSS17-6e" transform="translate(415.867788 0) scale(0.996264)"/>
     <use xlink:href="#CMSS17-67" transform="translate(464.072731 0) scale(0.996264)"/>
     <use xlink:href="#CMSS17-65" transform="translate(542.145467 0) scale(0.996264)"/>
     <use xlink:href="#CMSS17-e" transform="translate(583.784289 0) scale(0.996264)"/>
     <use xlink:href="#CMSS17-63" transform="translate(659.935231 0) scale(0.996264)"/>
     <use xlink:href="#CMSS17-69" transform="translate(701.574053 0) scale(0.996264)"/>
     <use xlink:href="#CMSS17-65" transform="translate(723.754776 0) scale(0.996264)"/>
     <use xlink:href="#CMSS17-6e" transform="translate(765.393598 0) scale(0.996264)"/>
     <use xlink:href="#CMSS17-63" transform="translate(813.598542 0) scale(0.996264)"/>
     <use xlink:href="#CMSS17-79" transform="translate(855.237364 0) scale(0.996264)"/>
     <use xlink:href="#CMSS17-76" transform="translate(929.466618 0) scale(0.996264)"/>
     <use xlink:href="#CMSS17-73" transform="translate(972.46676 0) scale(0.996264)"/>
     <use xlink:href="#CMSS17-6e" transform="translate(1039.609415 0) scale(0.996264)"/>
     <use xlink:href="#CMSS17-75" transform="translate(1087.814358 0) scale(0.996264)"/>
     <use xlink:href="#CMSS17-6d" transform="translate(1136.019301 0) scale(0.996264)"/>
     <use xlink:href="#CMSS17-62" transform="translate(1210.248555 0) scale(0.996264)"/>
     <use xlink:href="#CMSS17-65" transform="translate(1261.055937 0) scale(0.996264)"/>
     <use xlink:href="#CMSS17-72" transform="translate(1302.694759 0) scale(0.996264)"/>
     <use xlink:href="#CMSS17-6f" transform="translate(1365.833644 0) scale(0.996264)"/>
     <use xlink:href="#CMSS17-66" transform="translate(1412.677268 0) scale(0.996264)"/>
     <use xlink:href="#CMSS17-4d" transform="translate(1472.53304 0) scale(0.996264)"/>
     <use xlink:href="#CMSS17-50" transform="translate(1554.20907 0) scale(0.996264)"/>
     <use xlink:href="#CMSS17-49" transform="translate(1613.944656 0) scale(0.996264)"/>
     <use xlink:href="#CMSS17-52" transform="translate(1670.957694 0) scale(0.996264)"/>
     <use xlink:href="#CMSS17-61" transform="translate(1731.373849 0) scale(0.996264)"/>
     <use xlink:href="#CMSS17-6e" transform="translate(1776.29577 0) scale(0.996264)"/>
     <use xlink:href="#CMSS17-6b" transform="translate(1824.500713 0) scale(0.996264)"/>
     <use xlink:href="#CMSS17-73" transform="translate(1870.103202 0) scale(0.996264)"/>
     <use xlink:href="#CMSS17-66" transform="translate(1937.245857 0) scale(0.996264)"/>
     <use xlink:href="#CMSS17-6f" transform="translate(1965.872515 0) scale(0.996264)"/>
     <use xlink:href="#CMSS17-72" transform="translate(2010.113685 0) scale(0.996264)"/>
     <use xlink:href="#CMSS17-45" transform="translate(2073.25257 0) scale(0.996264)"/>
     <use xlink:href="#CMSS17-53" transform="translate(2129.144584 0) scale(0.996264)"/>
     <use xlink:href="#CMSS17-50" transform="translate(2181.1931 0) scale(0.996264)"/>
     <use xlink:href="#CMSS17-52" transform="translate(2240.928686 0) scale(0.996264)"/>
     <use xlink:href="#CMSS17-65" transform="translate(2301.344841 0) scale(0.996264)"/>
     <use xlink:href="#CMSS17-73" transform="translate(2342.983663 0) scale(0.996264)"/>
     <use xlink:href="#CMSS17-53" transform="translate(2378.897205 0) scale(0.996264)"/>
     <use xlink:href="#CMSS17-6f" transform="translate(2430.945721 0) scale(0.996264)"/>
     <use xlink:href="#CMSS17-2f" transform="translate(2477.789345 0) scale(0.996264)"/>
     <use xlink:href="#CMSS17-34" transform="translate(2524.632968 0) scale(0.996264)"/>
     <use xlink:href="#CMSS17-2e" transform="translate(2571.476592 0) scale(0.996264)"/>
     <use xlink:href="#CMSS17-32" transform="translate(2597.500797 0) scale(0.996264)"/>
     <use xlink:href="#CMSS17-2e" transform="translate(2644.34442 0) scale(0.996264)"/>
     <use xlink:href="#CMSS17-32" transform="translate(2670.368625 0) scale(0.996264)"/>
     <use xlink:href="#CMSS17-2d" transform="translate(2717.212249 0) scale(0.996264)"/>
     <use xlink:href="#CMSS17-66" transform="translate(2748.441361 0) scale(0.996264)"/>
     <use xlink:href="#CMSS17-6f" transform="translate(2777.06802 0) scale(0.996264)"/>
     <use xlink:href="#CMSS17-73" transform="translate(2823.911644 0) scale(0.996264)"/>
     <use xlink:href="#CMSS17-73" transform="translate(2859.825186 0) scale(0.996264)"/>
     <use xlink:href="#CMSS17-2d" transform="translate(2895.738728 0) scale(0.996264)"/>
     <use xlink:href="#CMSS17-32" transform="translate(2926.96784 0) scale(0.996264)"/>
     <use xlink:href="#CMSS17-30" transform="translate(2973.811464 0) scale(0.996264)"/>
     <use xlink:href="#CMSS17-32" transform="translate(3020.655087 0) scale(0.996264)"/>
     <use xlink:href="#CMSS17-33" transform="translate(3067.498711 0) scale(0.996264)"/>
     <use xlink:href="#CMSS17-61" transform="translate(3114.342334 0) scale(0.996264)"/>
    </g>
   </g>
   <g id="legend_1">
    <g id="patch_7">
     <path d="M 278.943736 93.334459 
L 407.72 93.334459 
Q 409.72 93.334459 409.72 91.334459 
L 409.72 48.472 
Q 409.72 46.472 407.72 46.472 
L 278.943736 46.472 
Q 276.943736 46.472 276.943736 48.472 
L 276.943736 91.334459 
Q 276.943736 93.334459 278.943736 93.334459 
z
" style="fill: #ffffff; opacity: 0.8; stroke: #cccccc; stroke-linejoin: miter"/>
    </g>
    <g id="line2d_28">
     <path d="M 280.943736 54.44398 
L 290.943736 54.44398 
L 300.943736 54.44398 
" style="fill: none; stroke: #ff0000; stroke-width: 1.5; stroke-linecap: square"/>
     <g>
      <use xlink:href="#mef9e9dd846" x="290.943736" y="54.44398" style="fill: #ff0000; stroke: #ff0000"/>
     </g>
    </g>
    <g id="text_16">
     <!-- Vega - AMD(7H12) -->
     <g transform="translate(308.943736 57.94398) scale(0.1 -0.1)">
      <defs>
       <path id="CMSS17-56" d="M 3910 4416 
L 3411 4416 
L 2304 1362 
C 2272 1273 2074 688 2035 484 
L 2029 484 
C 1978 726 1773 1292 1664 1604 
L 922 3672 
L 646 4416 
L 83 4416 
L 1715 0 
L 2278 0 
L 3910 4416 
z
" transform="scale(0.015625)"/>
       <path id="CMSS17-41" d="M 2272 4416 
L 1722 4416 
L 166 0 
L 653 0 
L 1101 1280 
L 2816 1280 
L 3270 0 
L 3827 0 
L 2272 4416 
z
M 2694 1637 
L 1222 1637 
C 1530 2528 1914 3638 1958 3925 
L 1965 3925 
C 2010 3663 2138 3281 2246 2956 
L 2694 1637 
z
" transform="scale(0.015625)"/>
       <path id="CMSS17-44" d="M 570 4416 
L 570 0 
L 2144 0 
C 3194 0 4000 980 4000 2170 
C 4000 3398 3194 4416 2144 4416 
L 570 4416 
z
M 1094 357 
L 1094 4059 
L 2003 4059 
C 2861 4059 3475 3277 3475 2170 
C 3475 1107 2867 357 2003 357 
L 1094 357 
z
" transform="scale(0.015625)"/>
       <path id="CMSS17-28" d="M 1613 4768 
C 1267 4417 474 3601 474 1588 
C 474 -433 1267 -1243 1613 -1600 
L 2003 -1600 
C 1216 -784 960 357 960 1581 
C 960 2798 1203 3946 2003 4768 
L 1613 4768 
z
" transform="scale(0.015625)"/>
       <path id="CMSS17-37" d="M 1389 3776 
C 1466 3776 1542 3776 1619 3776 
L 2355 3776 
C 1440 2711 915 1365 915 -32 
L 1427 -32 
C 1427 1323 1875 2696 2752 3795 
L 2752 4209 
L 250 4209 
L 250 3776 
L 1389 3776 
z
" transform="scale(0.015625)"/>
       <path id="CMSS17-48" d="M 3674 4416 
L 3136 4416 
L 3136 2501 
L 1101 2501 
L 1101 4416 
L 563 4416 
L 563 0 
L 1101 0 
L 1101 2112 
L 3136 2112 
L 3136 0 
L 3674 0 
L 3674 4416 
z
" transform="scale(0.015625)"/>
       <path id="CMSS17-31" d="M 1818 4288 
L 1696 4288 
C 1350 3940 947 3890 538 3890 
L 538 3520 
C 723 3520 1024 3520 1325 3667 
L 1325 369 
L 570 369 
L 570 0 
L 2573 0 
L 2573 369 
L 1818 369 
L 1818 4288 
z
" transform="scale(0.015625)"/>
       <path id="CMSS17-29" d="M 723 -1600 
C 1069 -1249 1862 -433 1862 1581 
C 1862 3601 1069 4411 723 4768 
L 333 4768 
C 1120 3952 1376 2811 1376 1588 
C 1376 370 1133 -778 333 -1600 
L 723 -1600 
z
" transform="scale(0.015625)"/>
      </defs>
      <use xlink:href="#CMSS17-56" transform="scale(0.996264)"/>
      <use xlink:href="#CMSS17-65" transform="translate(59.615401 0) scale(0.996264)"/>
      <use xlink:href="#CMSS17-67" transform="translate(101.254223 0) scale(0.996264)"/>
      <use xlink:href="#CMSS17-61" transform="translate(148.097847 0) scale(0.996264)"/>
      <use xlink:href="#CMSS17-2d" transform="translate(224.24888 0) scale(0.996264)"/>
      <use xlink:href="#CMSS17-41" transform="translate(286.707105 0) scale(0.996264)"/>
      <use xlink:href="#CMSS17-4d" transform="translate(348.92496 0) scale(0.996264)"/>
      <use xlink:href="#CMSS17-44" transform="translate(430.60099 0) scale(0.996264)"/>
      <use xlink:href="#CMSS17-28" transform="translate(498.143832 0) scale(0.996264)"/>
      <use xlink:href="#CMSS17-37" transform="translate(534.577746 0) scale(0.996264)"/>
      <use xlink:href="#CMSS17-48" transform="translate(581.42137 0) scale(0.996264)"/>
      <use xlink:href="#CMSS17-31" transform="translate(647.482889 0) scale(0.996264)"/>
      <use xlink:href="#CMSS17-32" transform="translate(694.326512 0) scale(0.996264)"/>
      <use xlink:href="#CMSS17-29" transform="translate(741.170136 0) scale(0.996264)"/>
     </g>
    </g>
    <g id="line2d_29">
     <path d="M 280.943736 69.40662 
L 290.943736 69.40662 
L 300.943736 69.40662 
" style="fill: none; stroke: #0000ff; stroke-width: 1.5; stroke-linecap: square"/>
     <g>
      <use xlink:href="#m244731f697" x="290.943736" y="69.40662" style="fill: #0000ff; stroke: #0000ff"/>
     </g>
    </g>
    <g id="text_17">
     <!-- Karolina - AMD(7H12) -->
     <g transform="translate(308.943736 72.90662) scale(0.1 -0.1)">
      <defs>
       <path id="CMSS17-4b" d="M 2234 2666 
L 3827 4416 
L 3213 4416 
L 1101 2106 
L 1101 4416 
L 563 4416 
L 563 0 
L 1101 0 
L 1101 1432 
L 1875 2278 
L 3315 0 
L 3910 0 
L 2234 2666 
z
" transform="scale(0.015625)"/>
      </defs>
      <use xlink:href="#CMSS17-4b" transform="scale(0.996264)"/>
      <use xlink:href="#CMSS17-61" transform="translate(64.820294 0) scale(0.996264)"/>
      <use xlink:href="#CMSS17-72" transform="translate(107.13976 0) scale(0.996264)"/>
      <use xlink:href="#CMSS17-6f" transform="translate(139.049533 0) scale(0.996264)"/>
      <use xlink:href="#CMSS17-6c" transform="translate(185.893156 0) scale(0.996264)"/>
      <use xlink:href="#CMSS17-69" transform="translate(208.073879 0) scale(0.996264)"/>
      <use xlink:href="#CMSS17-6e" transform="translate(230.254602 0) scale(0.996264)"/>
      <use xlink:href="#CMSS17-61" transform="translate(278.459546 0) scale(0.996264)"/>
      <use xlink:href="#CMSS17-2d" transform="translate(354.610579 0) scale(0.996264)"/>
      <use xlink:href="#CMSS17-41" transform="translate(417.068804 0) scale(0.996264)"/>
      <use xlink:href="#CMSS17-4d" transform="translate(479.286659 0) scale(0.996264)"/>
      <use xlink:href="#CMSS17-44" transform="translate(560.962689 0) scale(0.996264)"/>
      <use xlink:href="#CMSS17-28" transform="translate(628.505531 0) scale(0.996264)"/>
      <use xlink:href="#CMSS17-37" transform="translate(664.939445 0) scale(0.996264)"/>
      <use xlink:href="#CMSS17-48" transform="translate(711.783069 0) scale(0.996264)"/>
      <use xlink:href="#CMSS17-31" transform="translate(777.844588 0) scale(0.996264)"/>
      <use xlink:href="#CMSS17-32" transform="translate(824.688211 0) scale(0.996264)"/>
      <use xlink:href="#CMSS17-29" transform="translate(871.531835 0) scale(0.996264)"/>
     </g>
    </g>
    <g id="line2d_30">
     <path d="M 280.943736 83.89728 
L 290.943736 83.89728 
L 300.943736 83.89728 
" style="fill: none; stroke: #ffa500; stroke-width: 1.5; stroke-linecap: square"/>
     <g>
      <use xlink:href="#m0f3bbc187b" x="290.943736" y="83.89728" style="fill: #ffa500; stroke: #ffa500"/>
     </g>
    </g>
    <g id="text_18">
     <!-- Deucalion - A64FX -->
     <g transform="translate(308.943736 87.39728) scale(0.1 -0.1)">
      <defs>
       <path id="CMSS17-36" d="M 2496 4101 
C 2227 4210 2035 4229 1856 4229 
C 1024 4229 250 3368 250 2006 
C 250 265 986 -128 1510 -128 
C 1798 -128 2086 -39 2362 280 
C 2643 617 2752 898 2752 1389 
C 2752 2179 2362 2880 1779 2880 
C 1357 2880 992 2657 768 2376 
C 832 3258 1254 3840 1862 3840 
C 2029 3840 2246 3816 2496 3710 
L 2496 4101 
z
M 774 1369 
C 774 1420 774 1452 781 1548 
C 781 2045 1069 2491 1536 2491 
C 1837 2491 1990 2332 2106 2135 
C 2240 1886 2246 1650 2246 1388 
C 2246 1140 2246 891 2099 637 
C 1978 439 1818 267 1510 267 
C 902 267 800 1114 774 1369 
z
" transform="scale(0.015625)"/>
       <path id="CMSS17-46" d="M 2918 1984 
L 2918 2373 
L 1101 2373 
L 1101 3968 
L 1882 3968 
C 1958 3968 2035 3968 2112 3968 
L 3168 3968 
L 3168 4375 
L 563 4375 
L 563 -32 
L 1101 -32 
L 1101 1984 
L 2918 1984 
z
" transform="scale(0.015625)"/>
       <path id="CMSS17-58" d="M 2214 2329 
L 3661 4416 
L 3072 4416 
L 1952 2762 
L 800 4416 
L 166 4416 
L 1690 2329 
L 83 0 
L 672 0 
L 1952 1941 
L 3277 0 
L 3910 0 
L 2214 2329 
z
" transform="scale(0.015625)"/>
      </defs>
      <use xlink:href="#CMSS17-44" transform="scale(0.996264)"/>
      <use xlink:href="#CMSS17-65" transform="translate(67.542842 0) scale(0.996264)"/>
      <use xlink:href="#CMSS17-75" transform="translate(109.181664 0) scale(0.996264)"/>
      <use xlink:href="#CMSS17-63" transform="translate(157.386607 0) scale(0.996264)"/>
      <use xlink:href="#CMSS17-61" transform="translate(199.025429 0) scale(0.996264)"/>
      <use xlink:href="#CMSS17-6c" transform="translate(243.94735 0) scale(0.996264)"/>
      <use xlink:href="#CMSS17-69" transform="translate(266.128073 0) scale(0.996264)"/>
      <use xlink:href="#CMSS17-6f" transform="translate(288.308796 0) scale(0.996264)"/>
      <use xlink:href="#CMSS17-6e" transform="translate(335.152419 0) scale(0.996264)"/>
      <use xlink:href="#CMSS17-2d" transform="translate(414.586475 0) scale(0.996264)"/>
      <use xlink:href="#CMSS17-41" transform="translate(477.044701 0) scale(0.996264)"/>
      <use xlink:href="#CMSS17-36" transform="translate(539.262555 0) scale(0.996264)"/>
      <use xlink:href="#CMSS17-34" transform="translate(586.106179 0) scale(0.996264)"/>
      <use xlink:href="#CMSS17-46" transform="translate(632.949802 0) scale(0.996264)"/>
      <use xlink:href="#CMSS17-58" transform="translate(686.239362 0) scale(0.996264)"/>
     </g>
    </g>
   </g>
  </g>
 </g>
 <defs>
  <clipPath id="pa13a5897e1">
   <rect x="57.6" y="41.472" width="357.12" height="266.112"/>
  </clipPath>
 </defs>
</svg>
